<mxfile host="drawio-plugin" modified="2023-05-19T17:15:44.035Z" agent="5.0 (X11; Linux x86_64) AppleWebKit/537.36 (KHTML, like Gecko) Chrome/104.0.5112.102 Safari/537.36" etag="3x8wizXLBM6dedSoQQCW" version="20.5.3" type="embed"><diagram name="Page-1" id="2YBvvXClWsGukQMizWep"><mxGraphModel dx="952" dy="612" grid="1" gridSize="10" guides="1" tooltips="1" connect="1" arrows="1" fold="1" page="1" pageScale="1" pageWidth="180" pageHeight="400" math="0" shadow="0"><root><mxCell id="0"/><mxCell id="1" parent="0"/><mxCell id="aM9ryv3xv72pqoxQDRHE-1" value="Host 1 or&lt;br&gt;another ESMF" style="shape=umlLifeline;perimeter=lifelinePerimeter;whiteSpace=wrap;html=1;container=0;dropTarget=0;collapsible=0;recursiveResize=0;outlineConnect=0;portConstraint=eastwest;newEdgeStyle={&quot;edgeStyle&quot;:&quot;elbowEdgeStyle&quot;,&quot;elbow&quot;:&quot;vertical&quot;,&quot;curved&quot;:0,&quot;rounded&quot;:0};" parent="1" vertex="1"><mxGeometry x="40" y="40" width="100" height="320" as="geometry"/></mxCell><mxCell id="aM9ryv3xv72pqoxQDRHE-2" value="" style="html=1;points=[];perimeter=orthogonalPerimeter;outlineConnect=0;targetShapes=umlLifeline;portConstraint=eastwest;newEdgeStyle={&quot;edgeStyle&quot;:&quot;elbowEdgeStyle&quot;,&quot;elbow&quot;:&quot;vertical&quot;,&quot;curved&quot;:0,&quot;rounded&quot;:0};" parent="aM9ryv3xv72pqoxQDRHE-1" vertex="1"><mxGeometry x="45" y="70" width="10" height="220" as="geometry"/></mxCell><mxCell id="aM9ryv3xv72pqoxQDRHE-5" value="ESMF &lt;br&gt;(Edge 1)" style="shape=umlLifeline;perimeter=lifelinePerimeter;whiteSpace=wrap;html=1;container=0;dropTarget=0;collapsible=0;recursiveResize=0;outlineConnect=0;portConstraint=eastwest;newEdgeStyle={&quot;edgeStyle&quot;:&quot;elbowEdgeStyle&quot;,&quot;elbow&quot;:&quot;vertical&quot;,&quot;curved&quot;:0,&quot;rounded&quot;:0};" parent="1" vertex="1"><mxGeometry x="220" y="40" width="100" height="320" as="geometry"/></mxCell><mxCell id="aM9ryv3xv72pqoxQDRHE-6" value="" style="html=1;points=[];perimeter=orthogonalPerimeter;outlineConnect=0;targetShapes=umlLifeline;portConstraint=eastwest;newEdgeStyle={&quot;edgeStyle&quot;:&quot;elbowEdgeStyle&quot;,&quot;elbow&quot;:&quot;vertical&quot;,&quot;curved&quot;:0,&quot;rounded&quot;:0};" parent="aM9ryv3xv72pqoxQDRHE-5" vertex="1"><mxGeometry x="45" y="70" width="10" height="220" as="geometry"/></mxCell><mxCell id="aM9ryv3xv72pqoxQDRHE-7" value="PUT /slice, /slice_reservation" style="html=1;verticalAlign=bottom;endArrow=block;edgeStyle=elbowEdgeStyle;elbow=vertical;curved=0;rounded=0;" parent="1" source="aM9ryv3xv72pqoxQDRHE-2" target="aM9ryv3xv72pqoxQDRHE-6" edge="1"><mxGeometry relative="1" as="geometry"><mxPoint x="195" y="130" as="sourcePoint"/><Array as="points"><mxPoint x="180" y="120"/></Array><mxPoint as="offset"/></mxGeometry></mxCell><mxCell id="K2FtZl9aHuUg5wctOBmM-1" value="DSMF" style="shape=umlLifeline;perimeter=lifelinePerimeter;whiteSpace=wrap;html=1;container=0;dropTarget=0;collapsible=0;recursiveResize=0;outlineConnect=0;portConstraint=eastwest;newEdgeStyle={&quot;edgeStyle&quot;:&quot;elbowEdgeStyle&quot;,&quot;elbow&quot;:&quot;vertical&quot;,&quot;curved&quot;:0,&quot;rounded&quot;:0};" parent="1" vertex="1"><mxGeometry x="400" y="40" width="100" height="320" as="geometry"/></mxCell><mxCell id="K2FtZl9aHuUg5wctOBmM-2" value="" style="html=1;points=[];perimeter=orthogonalPerimeter;outlineConnect=0;targetShapes=umlLifeline;portConstraint=eastwest;newEdgeStyle={&quot;edgeStyle&quot;:&quot;elbowEdgeStyle&quot;,&quot;elbow&quot;:&quot;vertical&quot;,&quot;curved&quot;:0,&quot;rounded&quot;:0};" parent="K2FtZl9aHuUg5wctOBmM-1" vertex="1"><mxGeometry x="45" y="70" width="10" height="220" as="geometry"/></mxCell><mxCell id="K2FtZl9aHuUg5wctOBmM-5" value="Switch" style="shape=umlLifeline;perimeter=lifelinePerimeter;whiteSpace=wrap;html=1;container=0;dropTarget=0;collapsible=0;recursiveResize=0;outlineConnect=0;portConstraint=eastwest;newEdgeStyle={&quot;edgeStyle&quot;:&quot;elbowEdgeStyle&quot;,&quot;elbow&quot;:&quot;vertical&quot;,&quot;curved&quot;:0,&quot;rounded&quot;:0};" parent="1" vertex="1"><mxGeometry x="580" y="40" width="100" height="320" as="geometry"/></mxCell><mxCell id="K2FtZl9aHuUg5wctOBmM-6" value="" style="html=1;points=[];perimeter=orthogonalPerimeter;outlineConnect=0;targetShapes=umlLifeline;portConstraint=eastwest;newEdgeStyle={&quot;edgeStyle&quot;:&quot;elbowEdgeStyle&quot;,&quot;elbow&quot;:&quot;vertical&quot;,&quot;curved&quot;:0,&quot;rounded&quot;:0};" parent="K2FtZl9aHuUg5wctOBmM-5" vertex="1"><mxGeometry x="45" y="70" width="10" height="220" as="geometry"/></mxCell><mxCell id="K2FtZl9aHuUg5wctOBmM-9" value="PUT /reservation" style="html=1;verticalAlign=bottom;endArrow=block;edgeStyle=elbowEdgeStyle;elbow=vertical;curved=0;rounded=0;" parent="1" source="aM9ryv3xv72pqoxQDRHE-6" target="K2FtZl9aHuUg5wctOBmM-2" edge="1"><mxGeometry relative="1" as="geometry"><mxPoint x="280" y="140" as="sourcePoint"/><Array as="points"><mxPoint x="365" y="140"/></Array><mxPoint x="450" y="140" as="targetPoint"/></mxGeometry></mxCell><mxCell id="K2FtZl9aHuUg5wctOBmM-14" value="200 OK" style="html=1;verticalAlign=bottom;endArrow=block;edgeStyle=elbowEdgeStyle;elbow=vertical;curved=0;rounded=0;" parent="1" source="K2FtZl9aHuUg5wctOBmM-2" edge="1" target="aM9ryv3xv72pqoxQDRHE-6"><mxGeometry relative="1" as="geometry"><mxPoint x="440" y="160" as="sourcePoint"/><Array as="points"><mxPoint x="355" y="160"/></Array><mxPoint x="280" y="160" as="targetPoint"/></mxGeometry></mxCell><mxCell id="K2FtZl9aHuUg5wctOBmM-15" value="PUT /slice" style="html=1;verticalAlign=bottom;endArrow=block;edgeStyle=elbowEdgeStyle;elbow=vertical;curved=0;rounded=0;" parent="1" edge="1"><mxGeometry relative="1" as="geometry"><mxPoint x="275" y="220" as="sourcePoint"/><Array as="points"><mxPoint x="360" y="220"/></Array><mxPoint x="445" y="220" as="targetPoint"/></mxGeometry></mxCell><mxCell id="K2FtZl9aHuUg5wctOBmM-16" value="PUT /queue" style="html=1;verticalAlign=bottom;endArrow=block;edgeStyle=elbowEdgeStyle;elbow=vertical;curved=0;rounded=0;" parent="1" edge="1"><mxGeometry relative="1" as="geometry"><mxPoint x="455" y="240" as="sourcePoint"/><Array as="points"/><mxPoint x="625" y="240" as="targetPoint"/></mxGeometry></mxCell><mxCell id="K2FtZl9aHuUg5wctOBmM-17" value="200 OK" style="html=1;verticalAlign=bottom;endArrow=block;edgeStyle=elbowEdgeStyle;elbow=vertical;curved=0;rounded=0;" parent="1" edge="1"><mxGeometry x="0.15" relative="1" as="geometry"><mxPoint x="625" y="290" as="sourcePoint"/><Array as="points"><mxPoint x="510" y="260"/></Array><mxPoint x="455" y="260" as="targetPoint"/><mxPoint as="offset"/></mxGeometry></mxCell><mxCell id="K2FtZl9aHuUg5wctOBmM-18" value="200 OK" style="html=1;verticalAlign=bottom;endArrow=block;edgeStyle=elbowEdgeStyle;elbow=vertical;curved=0;rounded=0;" parent="1" edge="1"><mxGeometry relative="1" as="geometry"><mxPoint x="445" y="299" as="sourcePoint"/><Array as="points"><mxPoint x="365" y="299"/></Array><mxPoint x="275" y="299" as="targetPoint"/></mxGeometry></mxCell><mxCell id="K2FtZl9aHuUg5wctOBmM-19" value="200 OK" style="html=1;verticalAlign=bottom;endArrow=block;edgeStyle=elbowEdgeStyle;elbow=vertical;curved=0;rounded=0;" parent="1" edge="1"><mxGeometry relative="1" as="geometry"><mxPoint x="265" y="320" as="sourcePoint"/><Array as="points"><mxPoint x="175" y="320"/></Array><mxPoint x="95" y="320" as="targetPoint"/></mxGeometry></mxCell><mxCell id="2" value="Install OpenFlow flows" style="html=1;verticalAlign=bottom;endArrow=block;edgeStyle=elbowEdgeStyle;elbow=vertical;curved=0;rounded=0;dashed=1;" edge="1" parent="1"><mxGeometry relative="1" as="geometry"><mxPoint x="455" y="280.06040268456377" as="sourcePoint"/><Array as="points"/><mxPoint x="625" y="280.06040268456377" as="targetPoint"/></mxGeometry></mxCell><mxCell id="3" value="PUT /slice_deployment" style="html=1;verticalAlign=bottom;endArrow=block;edgeStyle=elbowEdgeStyle;elbow=vertical;curved=0;rounded=0;dashed=1;" edge="1" parent="1" source="aM9ryv3xv72pqoxQDRHE-2" target="aM9ryv3xv72pqoxQDRHE-6"><mxGeometry relative="1" as="geometry"><mxPoint x="100" y="170.06040268456377" as="sourcePoint"/><Array as="points"><mxPoint x="140" y="200"/><mxPoint x="260" y="170"/></Array><mxPoint x="260" y="170" as="targetPoint"/></mxGeometry></mxCell><mxCell id="4" value="200 OK" style="html=1;verticalAlign=bottom;endArrow=block;edgeStyle=elbowEdgeStyle;elbow=vertical;curved=0;rounded=0;dashed=1;" edge="1" parent="1" source="aM9ryv3xv72pqoxQDRHE-6" target="aM9ryv3xv72pqoxQDRHE-2"><mxGeometry relative="1" as="geometry"><mxPoint x="260" y="180" as="sourcePoint"/><Array as="points"><mxPoint x="180" y="180"/></Array><mxPoint x="100" y="180" as="targetPoint"/></mxGeometry></mxCell><mxCell id="6" value="&lt;font style=&quot;font-size: 9px;&quot;&gt;Wait for everyone to stage changes&lt;br&gt;(See ESMF and CTMF diagram)&lt;/font&gt;" style="text;html=1;align=center;verticalAlign=middle;resizable=0;points=[];autosize=1;fontColor=#F08F1F;" vertex="1" parent="1"><mxGeometry x="280" y="166" width="160" height="40" as="geometry"/></mxCell></root></mxGraphModel></diagram></mxfile>